HIERARCHY
ROOT Hips
{
  OFFSET 265.287 66.7526 -254.649
  CHANNELS 6 Xposition Yposition Zposition Zrotation Xrotation Yrotation
  JOINT LeftUpLeg
  {
    OFFSET 8.64259 1.95398 -2.38835
    CHANNELS 3 Zrotation Xrotation Yrotation
    JOINT LeftLeg
    {
      OFFSET 43.7702 0 0
      CHANNELS 3 Zrotation Xrotation Yrotation
      JOINT LeftFoot
      {
        OFFSET 40.6238 0 0
        CHANNELS 3 Zrotation Xrotation Yrotation
        JOINT LeftToeBase
        {
          OFFSET 12.7242 0 0
          CHANNELS 3 Zrotation Xrotation Yrotation
          End Site
          {
            OFFSET 0 0 0
          }
        }
      }
    }
  }
  JOINT RightUpLeg
  {
    OFFSET -8.2249 1.95398 -2.59336
    CHANNELS 3 Zrotation Xrotation Yrotation
    JOINT RightLeg
    {
      OFFSET 43.5653 0 0
      CHANNELS 3 Zrotation Xrotation Yrotation
      JOINT RightFoot
      {
        OFFSET 40.6238 0 0
        CHANNELS 3 Zrotation Xrotation Yrotation
        JOINT RightToeBase
        {
          OFFSET 12.7242 0 0
          CHANNELS 3 Zrotation Xrotation Yrotation
          End Site
          {
            OFFSET 0 0 0
          }
        }
      }
    }
  }
  JOINT Spine
  {
    OFFSET 0.165834 0.87714 6.61349
    CHANNELS 3 Zrotation Xrotation Yrotation
    JOINT Spine1
    {
      OFFSET 7.38963 1.71661e-005 0
      CHANNELS 3 Zrotation Xrotation Yrotation
      JOINT Spine2
      {
        OFFSET 11.9445 1.14441e-005 0
        CHANNELS 3 Zrotation Xrotation Yrotation
        JOINT Spine3
        {
          OFFSET 14.7254 4.19617e-005 0
          CHANNELS 3 Zrotation Xrotation Yrotation
          JOINT Spine4
          {
            OFFSET 10.9679 0 0
            CHANNELS 3 Zrotation Xrotation Yrotation
            JOINT RightShoulder
            {
              OFFSET 2.46616 -1.6653 3.69651
              CHANNELS 3 Zrotation Xrotation Yrotation
              JOINT RightArm
              {
                OFFSET 13.0012 0 0
                CHANNELS 3 Zrotation Xrotation Yrotation
                JOINT RightForeArm
                {
                  OFFSET 28.7848 1.52588e-005 0
                  CHANNELS 3 Zrotation Xrotation Yrotation
                  JOINT RightHand
                  {
                    OFFSET 26.5688 1.52588e-005 0
                    CHANNELS 3 Zrotation Xrotation Yrotation
                    End Site
                    {
                      OFFSET 0 0 0
                    }
                  }
                }
              }
            }
            JOINT LeftShoulder
            {
              OFFSET 2.38034 -1.29275 -3.7523
              CHANNELS 3 Zrotation Xrotation Yrotation
              JOINT LeftArm
              {
                OFFSET 16.3182 6.10351e-005 0
                CHANNELS 3 Zrotation Xrotation Yrotation
                JOINT LeftForeArm
                {
                  OFFSET 27.0901 0 0
                  CHANNELS 3 Zrotation Xrotation Yrotation
                  JOINT LeftHand
                  {
                    OFFSET 24.5451 1.52588e-005 0
                    CHANNELS 3 Zrotation Xrotation Yrotation
                    End Site
                    {
                      OFFSET 0 0 0
                    }
                  }
                }
              }
            }
            JOINT Neck
            {
              OFFSET 5.0226 -0.0266342 0
              CHANNELS 3 Zrotation Xrotation Yrotation
              JOINT Head
              {
                OFFSET 6.69364 2.86102e-005 0
                CHANNELS 3 Zrotation Xrotation Yrotation
                End Site
                {
                  OFFSET 0 0 0
                }
              }
            }
          }
        }
      }
    }
  }
}
MOTION
Frames:	9
Frame Time:	0.0416667
-256.529 89.9015 297.294 -82.8978 -52.6395 -78.5509 -172.395 26.984 88.8943 -28.1292 15.0158 -1.55938 65.5679 2.74079 7.80629 23.9703 2.41492 -5.54103 176.031 3.18891 94.9355 -31.8014 -5.21602 1.29281 45.2873 7.3489 33.0615 56.3805 -2.87873 8.45117 -4.51175 6.10437 -87.633 14.8802 -7.75579 5.89603 3.21753 -7.48928 6.23176 -19.4627 -9.16641 3.28202 0.549937 -9.16639 3.28203 54.0334 -57.7651 -146.935 40.6381 -6.14204 -7.83202 2.82871 -34.8088 -4.96247 -8.93954 -0.445078 0.64618 -81.275 6.84572 81.1252 -65.6462 -31.8275 30.872 22.2732 14.5729 -21.008 -0.590563 -0.0380417 -0.995785 -37.7858 32.0383 -39.1288 16.6288 33.5697 45.6192 
-251.722 90.8049 291.885 -84.2513 -52.0104 -78.4794 -172.883 25.2545 90.2164 -16.0647 13.8162 -0.876049 56.1532 -1.28964 -0.354987 31.1173 -0.628866 -0.079244 179.364 2.44921 98.5846 -27.1085 -5.92359 0.915953 58.4619 3.79963 19.2999 44.8015 -2.21969 3.4867 -4.176 7.19129 -88.1645 12.6507 -7.42009 4.5361 0.991872 -7.2135 4.85895 -21.696 -8.43825 2.08488 -1.68337 -8.43824 2.08488 62.8268 -53.281 -138.492 39.9163 -10.4471 -18.026 -0.934168 -28.0459 -13.3434 -10.8748 -0.381664 -1.15025 -78.0893 7.80644 94.868 -73.8888 -24.0379 17.8699 23.2264 20.2602 -20.4718 -2.34764 -0.0890159 -1.04177 -22.4547 26.9413 -45.4164 10.003 30.6662 49.0693 
-246.7 90.9329 286.418 -86.342 -53.8047 -79.5343 -174.732 24.0897 91.7042 -9.818 18.1003 0.914222 48.6123 -3.58391 -7.57627 43.2337 -4.27352 9.55309 179.888 3.084 99.976 -24.4064 -2.81351 1.05429 66.8484 1.07388 14.6954 34.948 -0.995312 1.45926 -3.90455 8.24679 -88.676 10.4903 -7.17036 3.26796 -1.16576 -7.01963 3.5814 -23.8556 -7.81919 0.950334 -3.84296 -7.8192 0.950338 69.812 -51.6512 -129.974 35.4671 -13.0854 -25.1525 -4.36715 -24.6154 -21.7319 -10.9306 -0.203402 -3.14288 -75.0933 1.40255 107.15 -73.3024 -11.7519 4.71377 22.5853 26.0092 -20.4399 -5.85221 -0.164191 -1.87562 -6.95766 18.4989 -51.5224 1.05638 24.9178 52.1835 
-241.883 91.3148 281.771 -91.4234 -55.8859 -84.8806 -179.261 25.1177 92.5262 -28.0256 14.782 3.57112 56.5643 0.471117 1.22354 43.3586 -4.29605 8.0038 179.471 3.31242 98.7648 -23.9264 -0.931137 0.399374 69.673 1.23993 13.5005 28.103 0.0806096 0.179877 -3.66258 9.16476 -89.0393 8.61877 -6.88258 2.33867 -3.03654 -6.77299 2.64046 -25.7184 -7.26567 0.151558 -5.70575 -7.26567 0.151555 76.357 -49.1398 -121.874 33.6872 -12.76 -28.5243 -5.17777 -22.7933 -23.8052 -11.7025 -0.250234 -2.78233 -71.0338 -12.4588 115.012 -61.891 -0.428277 -9.82312 20.072 29.0773 -18.7655 -5.05563 -0.153361 -1.6718 10.3074 7.78305 -52.0721 -10.6321 16.9161 50.5655 
-237.365 91.8547 277.762 -97.9379 -56.2669 -93.0437 179.292 22.1167 92.5526 -49.5406 6.92809 4.13916 60.8282 2.94867 2.30548 42.9856 -4.22054 7.62409 177.931 4.95903 94.9442 -27.2327 -2.60037 -0.149855 68.953 2.49117 14.7601 26.176 0.764962 -2.7674 -3.55279 9.40604 -88.9219 8.13523 -6.61834 2.51259 -3.52182 -6.50137 2.80241 -26.1916 -7.06611 0.398061 -6.17896 -7.0661 0.398063 78.9478 -48.9027 -118.15 33.3408 -12.2444 -26.5098 -0.771627 -23.2631 -15.8911 -14.2301 -0.467796 -1.4017 -69.828 -16.2607 116.49 -58.6978 3.51229 -16.9587 19.3733 30.1582 -17.5862 -1.78335 -0.0701743 -0.412653 17.4917 6.27447 -40.8506 -17.1639 13.9014 36.9411 
-232.756 92.0927 273.859 -103.452 -57.1559 -100.868 178.539 14.0599 92.0079 -60.1908 5.58003 4.33252 58.5287 2.71798 3.63751 42.5229 -4.10709 7.55027 176.517 7.61598 90.9605 -30.574 -5.65389 -0.601517 66.559 3.12267 12.508 27.2352 0.695335 -3.62733 -3.65789 9.37604 -88.712 8.20671 -6.73491 2.94039 -3.45075 -6.59903 3.23486 -26.1232 -7.30579 0.770689 -6.11053 -7.30576 0.770693 80.2993 -50.0789 -115.661 33.6434 -8.99928 -22.7806 3.13538 -27.3331 -5.5212 -11.609 -0.614168 1.01255 -70.197 -17.4733 115.198 -56.5174 5.77883 -19.7726 19.499 27.2376 -20.6741 -0.26436 -0.0313836 -1.19423 18.3111 6.90098 -35.6346 -18.5367 13.4127 31.4088 
-228.069 92.1043 270.14 -104.215 -59.8034 -101.913 177.984 5.85513 94.7204 -58.5268 9.62281 6.0657 56.0843 1.2252 0.0803662 43.3024 -4.27469 7.97097 175.963 11.1575 89.3004 -29.6363 -6.59683 -0.234941 62.4447 4.43889 11.4433 28.006 0.529931 -3.39854 -3.67398 9.15937 -89.0344 8.63297 -6.90316 2.35579 -3.02226 -6.79279 2.65848 -25.7052 -7.29046 0.161598 -5.69252 -7.29045 0.161592 82.2651 -51.3244 -112.287 33.6751 -3.01366 -16.7721 2.8888 -29.7184 -1.16553 -7.98634 -0.537276 2.83613 -70.7156 -22.1881 112.637 -50.9428 8.44071 -23.9801 19.4182 25.3495 -23.8321 1.05385 -0.0132748 -1.73901 20.0387 5.36803 -34.6662 -19.5122 12.007 30.6429 
-223.291 92.2164 266.3 -103.254 -63.9487 -99.9179 179.575 -1.70354 97.5961 -45.7715 17.4496 9.05085 57.2043 0.965181 -3.41695 44.0255 -4.49729 6.53674 175.757 13.0802 88.9948 -23.9378 -4.26362 0.325915 56.9175 6.35119 11.6245 29.9037 -0.230053 0.79098 -3.69067 8.80305 -89.5006 9.32574 -7.13566 1.51467 -2.32678 -7.06206 1.82872 -25.02 -7.25925 -0.711469 -5.00738 -7.25925 -0.711472 84.587 -54.084 -108.006 29.9894 0.491124 -10.8881 2.23619 -28.7674 -0.319705 -6.79675 -0.457552 2.86455 -72.2243 -26.7304 108.425 -46.0004 10.0633 -27.1983 18.6413 23.4613 -25.3751 1.62644 -0.0188679 -2.32052 18.9821 3.87158 -33.2324 -18.8149 10.2971 28.2036 
-216.923 91.7863 261.773 -100.46 -65.5475 -96.9092 -177.106 -5.66022 97.212 -32.5011 21.2223 9.35443 63.6595 3.54261 0.319389 51.2362 -6.46001 4.63874 175.275 15.5476 87.1065 -16.6045 -5.19418 0.723841 49.7375 8.00317 11.8122 37.5319 -1.19889 -1.82654 -3.33144 8.44218 -89.8123 10.0276 -6.55381 0.914486 -1.62734 -6.50718 1.20325 -24.294 -6.52431 -1.10615 -4.2813 -6.52432 -1.10616 88.2778 -55.8209 -102.237 26.9011 2.25712 -6.90307 1.87439 -25.0546 0.00112389 -7.00694 -0.538687 4.05142 -74.0365 -32.2646 104.097 -38.6502 12.584 -30.5632 17.8201 22.9142 -27.2298 0.935683 -0.0429703 -2.72261 17.8853 2.10029 -31.4194 -18.5219 8.0273 26.2682 
